<?xml version="1.0" encoding="UTF-8" standalone="no"?>
<!-- Created with Inkscape (http://www.inkscape.org/) -->

<svg
   xmlns:dc="http://purl.org/dc/elements/1.1/"
   xmlns:cc="http://creativecommons.org/ns#"
   xmlns:rdf="http://www.w3.org/1999/02/22-rdf-syntax-ns#"
   xmlns:svg="http://www.w3.org/2000/svg"
   xmlns="http://www.w3.org/2000/svg"
   xmlns:xlink="http://www.w3.org/1999/xlink"
   xmlns:sodipodi="http://sodipodi.sourceforge.net/DTD/sodipodi-0.dtd"
   xmlns:inkscape="http://www.inkscape.org/namespaces/inkscape"
   width="256"
   height="256"
   id="svg2"
   version="1.1"
   inkscape:version="0.48.1 r9760"
   sodipodi:docname="map.svg">
  <title
     id="title4103">treasure map</title>
  <defs
     id="defs4">
    <inkscape:perspective
       sodipodi:type="inkscape:persp3d"
       inkscape:vp_x="0 : 526.18109 : 1"
       inkscape:vp_y="0 : 1000 : 0"
       inkscape:vp_z="744.09448 : 526.18109 : 1"
       inkscape:persp3d-origin="372.04724 : 350.78739 : 1"
       id="perspective10" />
    <inkscape:perspective
       id="perspective4135"
       inkscape:persp3d-origin="0.5 : 0.33333333 : 1"
       inkscape:vp_z="1 : 0.5 : 1"
       inkscape:vp_y="0 : 1000 : 0"
       inkscape:vp_x="0 : 0.5 : 1"
       sodipodi:type="inkscape:persp3d" />
  </defs>
  <sodipodi:namedview
     id="base"
     pagecolor="#ffffff"
     bordercolor="#666666"
     borderopacity="1.0"
     inkscape:pageopacity="0.0"
     inkscape:pageshadow="2"
     inkscape:zoom="2.8284271"
     inkscape:cx="143.2021"
     inkscape:cy="131.85639"
     inkscape:document-units="px"
     inkscape:current-layer="layer1"
     showgrid="false"
     inkscape:window-width="1680"
     inkscape:window-height="1002"
     inkscape:window-x="0"
     inkscape:window-y="0"
     inkscape:window-maximized="0"
     showguides="true"
     inkscape:guide-bbox="true" />
  <metadata
     id="metadata7">
    <rdf:RDF>
      <cc:Work
         rdf:about="">
        <dc:format>image/svg+xml</dc:format>
        <dc:type
           rdf:resource="http://purl.org/dc/dcmitype/StillImage" />
        <dc:title>treasure map</dc:title>
        <dc:date>2011-02-18</dc:date>
        <dc:creator>
          <cc:Agent>
            <dc:title>tzunghaor (Prim András)</dc:title>
          </cc:Agent>
        </dc:creator>
        <dc:publisher>
          <cc:Agent>
            <dc:title>openclipart.org</dc:title>
          </cc:Agent>
        </dc:publisher>
        <dc:subject>
          <rdf:Bag>
            <rdf:li>map</rdf:li>
            <rdf:li>treasure</rdf:li>
            <rdf:li>pirate</rdf:li>
            <rdf:li>sea</rdf:li>
          </rdf:Bag>
        </dc:subject>
        <cc:license
           rdf:resource="http://creativecommons.org/licenses/publicdomain/" />
      </cc:Work>
      <cc:License
         rdf:about="http://creativecommons.org/licenses/publicdomain/">
        <cc:permits
           rdf:resource="http://creativecommons.org/ns#Reproduction" />
        <cc:permits
           rdf:resource="http://creativecommons.org/ns#Distribution" />
        <cc:permits
           rdf:resource="http://creativecommons.org/ns#DerivativeWorks" />
      </cc:License>
    </rdf:RDF>
  </metadata>
  <g
     inkscape:label="1. réteg"
     inkscape:groupmode="layer"
     id="layer1"
     transform="translate(-190.233,-423.26976)">
    <g
       id="g4032"
       transform="matrix(0,1.578479,-2.0181266,0,1453.9503,-11.217884)">
      <path
         id="path3803"
         d="m 389.39904,501.7091 c -4.56026,0.69826 -8.55321,3.83817 -11.83038,7.48109 -1.62153,1.796 -3.26129,4.00637 -5.60586,4.33869 -2.93247,0.15743 -5.42567,-1.92278 -7.99849,-3.24796 -3.71174,-1.77548 -7.79154,-1.09117 -11.68948,-1.42338 -2.6331,-0.16151 -5.176,-1.03745 -7.70707,-1.83288 -5.19403,-1.45303 -10.80006,-1.94273 -15.90798,0.21465 -1.91678,0.9575 -3.57596,3.16919 -3.42272,5.73986 0.0317,1.79481 0.63744,3.54875 1.6272,4.90785 -0.85732,1.1111 -2.26486,1.08462 -3.2939,1.87302 -7.20298,3.60046 -14.6971,6.29185 -22.15044,9.06017 -5.36897,2.38332 -10.12274,6.60683 -13.56006,12.01193 -4.08783,5.69844 -7.82598,11.92035 -10.00718,18.97423 -0.90059,4.12275 0.60064,8.72488 3.50505,11.22103 1.80462,1.78582 4.06833,2.74934 5.98678,4.31649 0.70498,0.99342 0.21037,2.33489 -0.16418,3.35895 -0.34657,1.2555 0.0964,2.72195 1.08927,3.3681 1.95107,1.87682 4.38357,2.82189 6.66928,3.97317 6.41603,2.66067 13.60126,3.26776 20.11831,0.73914 3.29897,-1.51456 6.0729,-4.69379 7.26214,-8.64169 1.35268,-1.45414 3.48215,-0.83826 4.75776,0.43354 1.99793,1.77196 3.33992,4.43436 4.33209,7.04463 0.42154,0.94969 -0.31762,1.82411 -0.86971,2.41018 -1.03278,1.0263 -2.42639,1.18005 -3.71973,1.24214 -7.32813,1.13911 -14.37632,5.42297 -19.03676,12.24233 -0.83643,0.94849 -1.01157,2.57123 -0.30251,3.68263 0.65532,1.28695 1.89752,1.87149 3.07294,2.22467 7.64328,3.61185 14.93897,8.33894 22.92932,10.86066 4.41797,0.61115 9.00465,-0.5374 13.30063,1.17897 4.84513,1.57751 9.77583,3.47227 14.87199,3.02566 2.83701,-0.19894 5.82742,-1.84855 7.10041,-4.97931 1.12141,-3.27279 0.21894,-7.00954 -1.3438,-9.86293 -0.93542,-1.67084 -1.38746,-4.20859 -0.0922,-5.79754 1.4594,-1.91784 3.79608,-1.99252 5.81544,-2.25696 9.53172,-1.51205 18.74971,-4.9289 28.2505,-6.64305 6.11282,-1.27637 12.15684,-3.50417 17.46049,-7.37355 4.27588,-2.98377 8.2779,-6.75286 11.09031,-11.62775 1.56741,-3.0293 2.3948,-6.91985 1.23942,-10.32597 -1.13901,-3.60065 -3.7419,-6.09787 -6.08893,-8.59606 -1.20129,-1.51501 -1.57308,-3.78617 -1.04384,-5.74402 0.53007,-3.71807 0.80034,-7.48157 1.29453,-11.20341 0.43076,-2.6536 1.63038,-5.02798 3.10008,-7.06547 1.35329,-2.04914 2.67755,-4.57247 2.24441,-7.28006 -0.50727,-3.01488 -3.08748,-5.12836 -5.6424,-5.04875 -1.24919,0.0617 -2.49327,0.0136 -3.73866,-0.11404 -9.27263,-0.63465 -18.54524,-1.28832 -27.80596,-2.13377 -0.33522,-1.4607 0.82031,-2.57955 1.01735,-3.94196 0.94565,-2.59983 1.26554,-5.86056 -0.13361,-8.32356 -1.18777,-1.69808 -3.12369,-2.62154 -4.97978,-2.45969 z"
         style="font-size:medium;font-style:normal;font-variant:normal;font-weight:normal;font-stretch:normal;text-indent:0;text-align:start;text-decoration:none;line-height:normal;letter-spacing:normal;word-spacing:normal;text-transform:none;direction:ltr;block-progression:tb;writing-mode:lr-tb;text-anchor:start;color:#000000;fill:#000000;fill-opacity:1;stroke:none;stroke-width:5;marker:none;visibility:visible;display:inline;overflow:visible;enable-background:accumulate;font-family:Advert;-inkscape-font-specification:Advert"
         inkscape:connector-curvature="0" />
      <path
         id="path3795"
         d="m 390.03027,507.07423 c 0.69797,1.01186 -0.0202,2.42279 -0.86972,2.92635 -2.25805,2.76257 -2.97643,7.45385 -1.03802,10.69282 1.81723,2.52801 4.84983,3.21467 7.53495,2.91593 10.198,-0.59075 20.45015,-1.25964 30.634,-0.027 1.26317,0.37953 1.35122,2.68543 0.24296,3.37608 -2.33639,1.9771 -4.68024,4.34953 -5.58095,7.68687 -0.42409,1.85887 -0.76846,3.7452 -1.20615,5.60292 -1.02069,4.72651 -1.98992,9.53331 -2.04568,14.43232 0.31586,3.19392 2.37145,5.60721 4.37465,7.55929 1.91303,1.84757 4.01603,3.95349 4.48651,6.96825 0.23868,3.12123 -1.53649,5.90139 -3.58546,7.64843 -3.37098,2.98972 -7.59182,4.02798 -11.62524,5.08774 -7.23329,2.02895 -13.77168,6.40082 -20.84491,8.99114 -4.19651,1.52674 -8.58231,2.21292 -12.96661,2.3107 -3.39266,0.13996 -6.81099,-0.0226 -10.17863,0.55144 -3.15747,0.65408 -6.3588,2.68909 -7.75743,6.23381 -1.63783,3.88982 -0.92587,8.81399 1.48297,12.04292 0.75575,1.15966 1.7614,2.11655 2.46961,3.28978 0.18835,1.34663 -1.28755,2.25359 -2.22423,1.62369 -3.86051,-0.67032 -7.43562,-2.61969 -11.14779,-3.93973 -3.53578,-1.42228 -7.39407,-2.45565 -11.09989,-1.33432 -2.51143,0.65492 -5.16337,1.71295 -7.72582,0.8004 -4.95233,-2.20184 -9.1579,-6.38956 -14.36464,-7.85647 -1.67057,-0.62015 -3.34185,-1.23761 -5.01373,-1.85291 4.51574,-5.31402 10.42594,-8.72504 16.53408,-10.70339 2.0516,-0.59532 4.39872,-0.92356 5.87174,-2.88728 1.67022,-2.31728 1.29328,-5.99782 -0.3828,-8.1779 -2.76712,-4.08239 -5.83715,-8.13489 -9.86629,-10.54314 -2.19319,-1.2303 -5.11649,-1.37657 -7.00862,0.64919 -1.87889,2.25827 -1.04909,5.97453 -2.88472,8.26816 -1.82375,2.37984 -4.69147,3.03756 -7.30276,3.03988 -4.096,0.005 -8.0987,-1.32451 -11.90589,-3.00447 -0.60753,-2.00817 0.89378,-3.99398 0.26706,-6.00516 -0.51727,-3.30524 -3.05091,-5.73973 -5.75322,-6.43699 -2.16772,-0.87623 -4.68157,-1.27523 -6.26892,-3.42213 -1.17491,-2.23209 -0.36013,-5.16619 1.10216,-6.92735 5.83377,-8.96829 13.2273,-16.47475 21.48267,-22.21029 4.21582,-3.03164 8.65128,-5.78236 13.47311,-7.19868 4.08802,-1.29897 8.27882,-2.11324 12.35639,-3.4532 2.21779,-1.03869 3.70078,-4.29825 2.65269,-6.96626 -0.62081,-1.65104 -1.763,-2.89846 -2.84033,-4.13867 -0.12315,-0.81625 0.80451,-0.8403 1.27311,-0.9085 4.7689,-1.0695 9.68292,-0.18547 14.27064,1.4965 2.04208,0.65068 4.02177,1.76814 6.18069,1.70663 2.82691,0.0555 5.77564,-0.71438 8.48874,0.57694 2.9403,1.26528 5.65037,3.47048 8.8512,3.73854 3.46706,0.37601 6.72274,-1.67124 9.38382,-4.09162 3.02791,-2.76649 5.6106,-6.42772 9.30987,-7.99988 0.24098,-0.0534 0.54526,-0.34947 0.76483,-0.13137 z"
         style="font-size:medium;font-style:normal;font-variant:normal;font-weight:normal;font-stretch:normal;text-indent:0;text-align:start;text-decoration:none;line-height:normal;letter-spacing:normal;word-spacing:normal;text-transform:none;direction:ltr;block-progression:tb;writing-mode:lr-tb;text-anchor:start;color:#000000;fill:#c8beb7;fill-opacity:1;stroke:none;stroke-width:5;marker:none;visibility:visible;display:inline;overflow:visible;enable-background:accumulate;font-family:Advert;-inkscape-font-specification:Advert"
         inkscape:connector-curvature="0" />
      <path
         style="fill:#000000;fill-opacity:1;stroke:none"
         d="m 378.00566,543.08779 c 2.1784,2.99032 3.87854,6.02274 5.08112,9.10729 -2.27278,1.94928 -4.98388,3.46404 -8.27677,4.40394 l 2.94836,4.43619 c 1.79741,-2.9664 3.72264,-5.50944 5.77908,-7.5985 1.10288,3.20633 1.66813,6.46233 1.61762,9.78002 l 4.51783,-2.22233 c -2.15129,-2.48884 -3.96841,-5.23924 -5.23753,-8.43173 2.59568,-2.42377 5.3989,-4.14132 8.43317,-5.0795 l -2.94836,-4.4362 c -1.59187,3.14907 -3.50277,5.99142 -5.9303,8.31587 -1.04614,-3.05827 -1.59437,-6.50522 -1.4664,-10.4974 l -4.51782,2.22235 z"
         id="path3797"
         inkscape:connector-curvature="0" />
      <path
         style="fill:none;stroke:#000000;stroke-width:2;stroke-miterlimit:4;stroke-dasharray:4, 4;stroke-dashoffset:0"
         d="m 326.09475,574.0549 c -2.56503,-14.33845 -6.89354,-23.96031 0.64126,-28.67691 7.53479,-4.7166 15.06959,-19.80971 21.80281,-18.48906 6.73322,1.32064 5.4507,16.79109 10.90141,21.69635 5.4507,4.90526 24.04722,3.58462 24.04722,3.58462"
         id="path3799"
         inkscape:connector-curvature="0" />
    </g>
    <path
       style="font-size:medium;font-style:normal;font-variant:normal;font-weight:normal;font-stretch:normal;text-indent:0;text-align:start;text-decoration:none;line-height:normal;letter-spacing:normal;word-spacing:normal;text-transform:none;direction:ltr;block-progression:tb;writing-mode:lr-tb;text-anchor:start;color:#000000;fill:#483e37;fill-opacity:1;stroke:none;stroke-width:2;marker:none;visibility:visible;display:inline;overflow:visible;enable-background:accumulate;font-family:Advert;-inkscape-font-specification:Advert"
       d="m 404.64595,438.77144 c -1.34215,0.0116 -2.67761,0.42736 -3.82462,1.1194 -0.88078,0.40802 -1.51594,1.1384 -2.09888,1.88899 -0.43599,0.39141 -0.42859,1.12186 -0.1166,1.58581 0.43234,0.40797 1.10174,0.41282 1.65578,0.27985 0.51512,0.0243 1.06931,-0.19746 1.63246,0.0233 0.80956,0.23758 1.57703,0.71631 1.93563,1.51585 0.33995,0.58239 0.52034,1.34723 0.0933,1.93563 -0.28672,0.46125 -0.71075,0.97309 -1.09608,1.25932 -1.52726,1.21014 -3.43512,1.73615 -5.22387,2.42537 -0.54867,0.2015 -1.81575,-0.0812 -1.77238,0.76959 0.43608,0.77545 1.36744,0.0715 2.02891,0.0933 1.21677,-0.18217 2.4679,-0.34083 3.61473,-0.81623 0.44077,-0.16237 0.8691,-0.35378 1.28265,-0.58302 l 1.56249,2.47201 0.51306,-0.32649 -1.98227,-2.19216 c 0.77043,-0.43953 1.47145,-0.99096 2.02891,-1.6791 l 2.26213,4.17443 0.51305,-0.27985 -2.68189,-4.03451 c 0.0715,-0.0935 0.14374,-0.18182 0.20989,-0.27985 0.59816,-0.80454 0.93497,-1.84176 0.86287,-2.84514 -0.11027,-1.21117 -0.9791,-2.16663 -1.91231,-2.86846 -0.61542,-0.43407 -1.35499,-0.63212 -2.09888,-0.6763 -0.45859,-0.11866 0.43424,-0.35473 0.58302,-0.46642 0.63169,-0.34801 1.35573,-0.38107 2.05224,-0.46642 0.90798,-0.0828 1.7787,0.24653 2.65857,0.41978 2.17109,0.53305 4.11867,1.68406 6.11006,2.65857 3.00566,1.65003 5.50718,4.03098 8.09233,6.24999 0.52088,0.27635 0.97169,1.4938 1.63246,1.00279 0.0777,-0.70844 -0.73442,-1.10791 -1.1194,-1.60914 -1.14979,-1.63879 -2.47673,-3.17276 -4.08115,-4.38431 -1.55586,-1.24764 -3.13401,-2.4809 -4.75745,-3.63805 -1.62428,-1.07045 -3.37806,-2.0264 -5.31715,-2.35541 -0.95691,-0.15068 -1.92285,-0.35855 -2.89178,-0.37313 -0.11901,0.004 -0.23081,-0.004 -0.34981,0 z m 5.06062,6.31995 5.08394,7.64923 0.51306,-0.32649 -5.597,-7.32274 z m -2.98507,1.1194 4.01118,6.52983 0.51306,-0.32649 -4.52424,-6.20334 z"
       id="path3704"
       inkscape:connector-curvature="0" />
    <use
       x="0"
       y="0"
       xlink:href="#path3704"
       id="use3710"
       transform="translate(-198.91732,194.36553)"
       width="322.19077"
       height="251.35944" />
    <use
       x="0"
       y="0"
       xlink:href="#use3710"
       id="use3712"
       transform="translate(13.564731,-24.993907)"
       width="322.19077"
       height="251.35944" />
    <use
       x="0"
       y="0"
       xlink:href="#use3712"
       id="use3714"
       transform="translate(32.728946,38.789857)"
       width="322.19077"
       height="251.35944" />
    <use
       x="0"
       y="0"
       xlink:href="#use3714"
       id="use3716"
       transform="translate(164.30131,-172.88761)"
       width="322.19077"
       height="251.35944" />
    <use
       x="0"
       y="0"
       xlink:href="#use3716"
       id="use3718"
       transform="translate(-205.16198,-19.697973)"
       width="322.19077"
       height="251.35944" />
    <use
       x="0"
       y="0"
       xlink:href="#use3718"
       id="use3720"
       transform="translate(26.920564,-20.556605)"
       width="322.19077"
       height="251.35944" />
    <use
       x="0"
       y="0"
       xlink:href="#use3720"
       id="use3722"
       transform="translate(182.23153,213.44523)"
       width="322.19077"
       height="251.35944" />
    <use
       x="0"
       y="0"
       xlink:href="#use3722"
       id="use3724"
       transform="translate(5.7578733,-10.202536)"
       width="322.19077"
       height="251.35944" />
  </g>
</svg>
